# xmcd
#
# Track frame offsets:
#	150
#	18094
#	41445
#	61953
#	81733
#	100909
#	102980
#	120501
#	134570
#	137947
#	155154
#	176950
#
# Disc length: 2996 seconds
#
# Revision: 1
# Processed by: cddbd v1.5PL3 Copyright (c) Steve Scherf et al.
# Submitted via: audiograbber 1.82.01
#
DISCID=ac0bb20c
DTITLE=Nikka Costa - Everybody Got Their Something
DYEAR=2000
DGENRE=Blues
TTITLE0=Like A Feather
TTITLE1=So Have I For You
TTITLE2=Tug of War
TTITLE3=Everybody Got Thir Something
TTITLE4=Nothing
TTITLE5=Nikka What?
TTITLE6=Hope It Felt Good
TTITLE7=Some Kind of Beautiful
TTITLE8=Nikka Who?
TTITLE9=Just Because
TTITLE10=Push and Pull
TTITLE11=Corners of My Mind
EXTD=
EXTT0=
EXTT1=
EXTT2=
EXTT3=
EXTT4=
EXTT5=
EXTT6=
EXTT7=
EXTT8=
EXTT9=
EXTT10=
EXTT11=
PLAYORDER=
